<?xml version="1.0" standalone="no"?>
<!DOCTYPE svg PUBLIC "-//W3C//DTD SVG 20010904//EN"
 "http://www.w3.org/TR/2001/REC-SVG-20010904/DTD/svg10.dtd">
<svg version="1.0" xmlns="http://www.w3.org/2000/svg"
 width="728.000000pt" height="508.000000pt" viewBox="0 0 728.000000 508.000000"
 preserveAspectRatio="xMidYMid meet">

<g transform="translate(0.000000,508.000000) scale(0.100000,-0.100000)"
fill="#000000" stroke="none">
<path d="M2161 5054 c-138 -31 -158 -38 -277 -94 -400 -187 -677 -542 -769
-985 -29 -140 -34 -334 -34 -1473 -1 -1297 -1 -1303 89 -1574 139 -417 459
-729 895 -872 178 -58 119 -56 1578 -56 l1342 0 105 24 c451 103 772 353 959
747 83 174 121 313 141 518 13 130 13 2286 0 2461 -28 384 -166 693 -422 943
-91 88 -251 203 -360 258 -76 38 -208 82 -325 108 -91 21 -116 21 -1455 20
l-1363 0 -104 -25z m2777 -449 c205 -33 369 -115 516 -254 176 -169 265 -388
286 -706 7 -93 9 -540 6 -1170 -5 -1172 -6 -1193 -86 -1413 -102 -276 -308
-470 -586 -550 -131 -38 -169 -44 -324 -53 -208 -11 -1948 -11 -2175 1 -248
13 -381 43 -538 120 -261 130 -413 361 -469 712 -10 65 -13 339 -13 1268 0
1290 -2 1244 56 1421 93 285 281 479 556 575 184 63 155 62 1478 63 1027 1
1213 -1 1293 -14z"/>
<path d="M4909 4182 c-100 -41 -158 -107 -185 -211 -35 -140 31 -277 166 -340
43 -20 70 -25 127 -25 156 1 278 114 291 269 10 125 -52 236 -162 292 -68 35
-171 41 -237 15z"/>
<path d="M3495 3864 c-257 -38 -458 -119 -643 -259 -263 -198 -439 -474 -509
-795 -25 -119 -25 -400 0 -520 86 -404 334 -732 690 -913 186 -95 336 -134
547 -143 385 -17 721 115 995 390 186 186 304 406 355 658 103 506 -94 1019
-511 1328 -154 114 -311 185 -509 231 -83 19 -343 34 -415 23z m334 -491 c314
-76 572 -338 638 -647 23 -110 21 -274 -6 -376 -132 -507 -669 -778 -1147
-579 -199 83 -371 255 -454 456 -87 209 -83 461 11 670 164 365 575 569 958
476z"/>
</g>
</svg>
